<?xml version="1.0" encoding="utf-8"?>
<!-- Generator: Adobe Illustrator 19.2.0, SVG Export Plug-In . SVG Version: 6.00 Build 0)  -->
<svg version="1.1" id="Layer_1" xmlns="http://www.w3.org/2000/svg" xmlns:xlink="http://www.w3.org/1999/xlink" x="0px" y="0px"
	 viewBox="0 0 100 100" style="enable-background:new 0 0 100 100;" xml:space="preserve">
<style type="text/css">
	.st0{fill:#005789;}
</style>
<path class="st0" d="M68.8,5H31.2C30.6,5,30,5.6,30,6.2V10h-7.5c-4.1,0-7.5,3.4-7.5,7.5v70c0,4.1,3.4,7.5,7.5,7.5h55
	c4.1,0,7.5-3.4,7.5-7.5v-70c0-4.1-3.4-7.5-7.5-7.5H70V6.2C70,5.6,69.4,5,68.8,5z M32.5,7.5h35v6.2c0,2.1-1.7,3.8-3.8,3.8H36.2
	c-2.1,0-3.8-1.7-3.8-3.8V7.5z M77.5,15c1.4,0,2.5,1.1,2.5,2.5v70c0,1.4-1.1,2.5-2.5,2.5h-55c-1.4,0-2.5-1.1-2.5-2.5v-70
	c0-1.4,1.1-2.5,2.5-2.5h7.6c0.6,2.8,3.1,5,6.1,5h27.5c3,0,5.5-2.2,6.1-5H77.5z"/>
<path class="st0" d="M40.4,27.9L31.2,37l-4.1-4.1c-0.5-0.5-1.3-0.5-1.8,0s-0.5,1.3,0,1.8l5,5c0.2,0.2,0.6,0.4,0.9,0.4
	s0.6-0.1,0.9-0.4l10-10c0.5-0.5,0.5-1.3,0-1.8S40.9,27.4,40.4,27.9z"/>
<path class="st0" d="M47.5,28.8c0,0.7,0.6,1.2,1.2,1.2h25c0.7,0,1.2-0.6,1.2-1.2s-0.6-1.2-1.2-1.2h-25
	C48.1,27.5,47.5,28.1,47.5,28.8z"/>
<path class="st0" d="M73.8,32.5h-25c-0.7,0-1.2,0.6-1.2,1.2s0.6,1.2,1.2,1.2h25c0.7,0,1.2-0.6,1.2-1.2S74.4,32.5,73.8,32.5z"/>
<path class="st0" d="M48.8,40h12.5c0.7,0,1.2-0.6,1.2-1.2s-0.6-1.2-1.2-1.2H48.8c-0.7,0-1.2,0.6-1.2,1.2S48.1,40,48.8,40z"/>
<path class="st0" d="M73.8,47.5h-25c-0.7,0-1.2,0.6-1.2,1.2s0.6,1.2,1.2,1.2h25c0.7,0,1.2-0.6,1.2-1.2S74.4,47.5,73.8,47.5z"/>
<path class="st0" d="M73.8,52.5h-25c-0.7,0-1.2,0.6-1.2,1.2s0.6,1.2,1.2,1.2h25c0.7,0,1.2-0.6,1.2-1.2S74.4,52.5,73.8,52.5z"/>
<path class="st0" d="M48.8,60h17.5c0.7,0,1.2-0.6,1.2-1.2s-0.6-1.2-1.2-1.2H48.8c-0.7,0-1.2,0.6-1.2,1.2S48.1,60,48.8,60z"/>
<path class="st0" d="M73.8,67.5h-25c-0.7,0-1.2,0.6-1.2,1.2s0.6,1.2,1.2,1.2h25c0.7,0,1.2-0.6,1.2-1.2S74.4,67.5,73.8,67.5z"/>
<path class="st0" d="M73.8,72.5h-25c-0.7,0-1.2,0.6-1.2,1.2s0.6,1.2,1.2,1.2h25c0.7,0,1.2-0.6,1.2-1.2S74.4,72.5,73.8,72.5z"/>
<path class="st0" d="M73.8,77.5h-25c-0.7,0-1.2,0.6-1.2,1.2s0.6,1.2,1.2,1.2h25c0.7,0,1.2-0.6,1.2-1.2S74.4,77.5,73.8,77.5z"/>
<path class="st0" d="M39.6,67.9c-0.5-0.5-1.3-0.5-1.8,0L33.7,72l-4.1-4.1c-0.5-0.5-1.3-0.5-1.8,0s-0.5,1.3,0,1.8l4.1,4.1l-4.1,4.1
	c-0.5,0.5-0.5,1.3,0,1.8c0.2,0.2,0.6,0.4,0.9,0.4s0.6-0.1,0.9-0.4l4.1-4.1l4.1,4.1c0.2,0.2,0.6,0.4,0.9,0.4s0.6-0.1,0.9-0.4
	c0.5-0.5,0.5-1.3,0-1.8l-4.1-4.1l4.1-4.1C40.1,69.1,40.1,68.4,39.6,67.9z"/>
<path class="st0" d="M39.6,47.9c-0.5-0.5-1.3-0.5-1.8,0L33.7,52l-4.1-4.1c-0.5-0.5-1.3-0.5-1.8,0s-0.5,1.3,0,1.8l4.1,4.1l-4.1,4.1
	c-0.5,0.5-0.5,1.3,0,1.8c0.2,0.2,0.6,0.4,0.9,0.4s0.6-0.1,0.9-0.4l4.1-4.1l4.1,4.1c0.2,0.2,0.6,0.4,0.9,0.4s0.6-0.1,0.9-0.4
	c0.5-0.5,0.5-1.3,0-1.8l-4.1-4.1l4.1-4.1C40.1,49.1,40.1,48.4,39.6,47.9z"/>
</svg>
