<?xml version="1.0" encoding="utf-8"?>
<!-- Generator: Adobe Illustrator 16.0.0, SVG Export Plug-In . SVG Version: 6.00 Build 0)  -->
<!DOCTYPE svg PUBLIC "-//W3C//DTD SVG 1.1//EN" "http://www.w3.org/Graphics/SVG/1.1/DTD/svg11.dtd">
<svg version="1.1" id="Layer_1" xmlns="http://www.w3.org/2000/svg" xmlns:xlink="http://www.w3.org/1999/xlink" x="0px" y="0px"
	 width="500px" height="500px" viewBox="0 0 500 500" enable-background="new 0 0 500 500" xml:space="preserve">
<path fill="#005789" d="M342.555,188.956c-12.466,19.194-6.978,45.024,12.216,57.491c19.194,12.467,45.026,6.978,57.491-12.216
	c12.468-19.193,6.978-45.022-12.217-57.49C380.851,164.275,355.021,169.762,342.555,188.956z M402.732,205.777
	c0.86,1.994,1.39,4.494,1.415,6.665c0.027,2.17-0.779,4.521-1.588,6.868c-0.657,1.011-0.806,2.35-1.134,2.854l5.555,3.608
	l-4.264,6.567l-5.557-3.608c-0.655,1.01-1.817,1.69-2.476,2.701c-1.815,1.694-4.138,3.058-6.132,3.917
	c-2.5,0.53-4.999,1.063-7.678,0.76c-2.676-0.302-5.529-1.437-8.054-3.077l-1.517-0.986l5.25-8.083l1.517,0.985
	c1.515,0.984,2.523,1.64,3.861,1.792c1.34,0.152,2.17-0.025,3.84-0.38c2.826-1.036,4.975-3.234,6.614-5.76
	c0.655-1.01,1.312-2.021,1.462-3.358c0.655-1.011,0.807-2.35,0.957-3.688c-0.025-2.171-0.886-4.164-2.904-5.477
	c-1.011-0.656-2.348-0.807-2.856-1.135c-0.83,0.177-1.993,0.859-3.153,1.541c-2.65,1.869-5.124,4.572-7.269,6.77
	c-1.491,1.187-2.979,2.374-4.471,3.561c-1.486,1.189-2.976,2.375-4.972,3.234c-1.995,0.861-3.662,1.212-5.832,1.24
	c-2.171,0.025-3.687-0.958-5.706-2.271c-2.022-1.311-3.715-3.129-4.571-5.123c-0.861-1.996-1.72-3.989-1.745-6.161
	c-0.027-2.173-0.053-4.343,1.26-6.363c0.656-1.008,0.479-1.843,1.134-2.854l-6.567-4.265l4.266-6.566l6.568,4.265
	c2.146-2.198,4.795-4.067,7.623-5.105c1.994-0.858,4.164-0.884,6.842-0.582c3.182,0.632,6.035,1.765,8.562,3.406l-4.921,7.576
	c-2.526-1.641-5.38-2.773-8.209-1.739c-1.993,0.86-3.482,2.046-5.124,4.573c-1.311,2.019-2.296,3.536-2.267,5.706
	c0.175,0.833,0.352,1.667,0.53,2.501c0.176,0.833,1.185,1.49,2.195,2.146c1.01,0.656,1.515,0.984,2.35,0.805
	c0.833-0.177,1.995-0.86,3.155-1.54c1.161-0.682,2.651-1.872,3.305-2.88c1.491-1.188,2.477-2.705,3.965-3.89
	c1.491-1.188,2.979-2.375,4.467-3.562c1.493-1.189,2.979-2.374,4.975-3.234c1.995-0.859,3.661-1.212,5.503-0.734
	c2.35,0.807,4.699,1.616,6.718,2.927C400.182,201.965,401.873,203.783,402.732,205.777z"/>
<path fill="#005789" d="M440.669,244.415h-11.921l58.251-87.072L381.444,86.72l-57.255,85.589
	c-9.686-7.035-27.51-4.406-42.439,7.049l-57.578,44.202c-3.99,3.066-7.386,6.504-10.201,10.101
	c-39.152,38.156-70.272,42.296-70.272,42.296v119.94c0,0,23.842-0.15,28.291,3.317c31.472,24.486,67.793,27.424,67.793,27.424
	h64.304h19.041h27.661c15.783,0,28.685-8.254,28.685-18.348s-12.901-18.347-28.685-18.347h-32.446l5.151-12.58
	c2.45,0.438,4.979,0.746,7.637,0.746h53.882c15.768,0,28.684-8.254,28.684-18.334c0-10.086-12.916-18.346-28.684-18.346h-46.811
	l4.937-12.095c1.274,0.116,2.543,0.251,3.875,0.251h53.873c15.783,0,28.686-8.252,28.686-18.347s-12.902-18.347-28.686-18.347
	h-42.84l4.843-11.82h77.779c15.782,0,28.686-8.254,28.686-18.347C469.354,252.632,456.451,244.415,440.669,244.415z
	 M406.238,244.415l-83.917-0.337l-23.851,0.337h-11.585l8.884-13.283l16.233-12.465c14.707-11.291,21.887-27.524,17.967-38.657
	l54.77-81.871l90.461,60.529l-57.355,85.747H406.238z"/>
<path fill="#005789" d="M28.501,428.945h99.601V262.073H28.501V428.945z M73.319,385.331c7.566,0,13.691,6.14,13.691,13.698
	c0,7.57-6.125,13.683-13.691,13.683c-7.558,0-13.69-6.118-13.69-13.683C59.629,391.471,65.761,385.331,73.319,385.331z"/>
<g>
</g>
<g>
</g>
<g>
</g>
<g>
</g>
<g>
</g>
<g>
</g>
<g>
</g>
<g>
</g>
<g>
</g>
<g>
</g>
<g>
</g>
<g>
</g>
<g>
</g>
<g>
</g>
<g>
</g>
</svg>
