<?xml version="1.0" encoding="utf-8"?>
<!-- Generator: Adobe Illustrator 16.0.0, SVG Export Plug-In . SVG Version: 6.00 Build 0)  -->
<!DOCTYPE svg PUBLIC "-//W3C//DTD SVG 1.1//EN" "http://www.w3.org/Graphics/SVG/1.1/DTD/svg11.dtd">
<svg version="1.1" id="Layer_1" xmlns="http://www.w3.org/2000/svg" xmlns:xlink="http://www.w3.org/1999/xlink" x="0px" y="0px"
	 width="500px" height="500px" viewBox="0 0 500 500" enable-background="new 0 0 500 500" xml:space="preserve">
<path fill="#005789" d="M482.582,250.715h-35.625c-1.005,0-1.507-0.502-2.008-1.002c-1.005-1.506-2.007-3.012-3.012-5.02
	c-8.028-12.042-18.063-22.078-29.604-30.106l-2.51-2.007c-1.504-1.002-3.512-2.007-5.017-3.512v-67.74
	c0-3.513-4.015-6.021-7.025-4.014c-12.544,8.028-38.134,25.09-50.68,42.651c-10.036-3.514-20.573-6.523-31.111-8.53V39.466H205.6
	v134.478c-45.662,11.039-83.295,34.122-104.369,63.224c-9.534,13.045-15.555,29.103-17.562,45.16c-4.517,0.502-9.534,0-14.552-1.505
	c-1.505-0.502-3.011-1.004-4.516-1.505c7.527-4.015,13.549-11.04,15.556-18.063c2.007-6.021,1.505-13.047-1.004-18.567
	c-3.01-6.021-8.029-10.538-14.05-12.543c-12.544-4.517-27.095,2.508-31.109,15.052c-2.509,7.527-2.007,17.061,1.505,24.588
	c-7.025-2.509-13.548-7.527-17.562-14.551c-1.505-3.012-5.52-4.518-9.033-2.51c-3.01,1.504-4.515,5.52-2.508,9.031
	c8.029,14.552,22.579,23.083,38.134,23.083c0.502,0,1.506,0,2.007,0c5.521,4.015,11.542,7.526,18.566,9.533
	c5.018,1.505,9.534,2.008,14.552,2.008c1.003,0,1.505,0,2.51,0c0,1.003,0,2.006,0,3.01c0,4.014,0.5,10.537,1.505,14.552
	c6.021,27.598,25.088,51.684,53.188,70.25c1.003,0.502,1.505,2.007,1.003,3.01l-24.586,46.164c-2.007,4.015,2.007,8.53,6.021,6.523
	l34.622-17.062l19.571,19.068c2.006,2.007,6.02,1.505,8.529-3.012l14.05-26.093c0.502-1.003,1.505-1.504,2.509-1.003
	c21.577,6.022,45.663,9.032,70.248,9.032c27.097,0,52.688-4.015,75.769-10.536c1.005-0.503,2.51,0,3.013,1.504l12.043,28.101
	c1.504,3.01,5.519,4.014,7.526,1.505l18.063-18.566l35.124,17.563c4.015,2.007,8.029-2.008,6.523-6.021l-21.576-50.681
	c-0.502-1.004,0-2.007,1.003-3.01c17.062-12.545,30.608-27.097,39.139-43.154c0.502-0.502,1.004-1.003,2.007-1.003h35.626
	c2.51,0,4.517-2.007,4.517-4.517v-76.269C487.099,252.723,485.091,250.715,482.582,250.715z M51.052,268.779
	c-1.003-0.502-2.007-1.003-2.51-2.008c0-0.501-0.5-0.501-0.5-1.003c-2.509-4.015-3.514-11.542-2.007-17.061
	c1.505-4.517,6.021-7.526,11.039-7.526c1.505,0,2.509,0,3.512,0.502c3.011,1.002,5.019,3.009,6.523,6.02
	c1.505,3.011,1.505,6.021,0.502,9.033C65.102,263.763,56.07,270.786,51.052,268.779z M198.073,206.558
	c-0.502,0-1.003,0.502-2.007,0.502c-2.51,0-5.019-1.505-5.52-4.014c-1.004-3.01,0.5-6.523,4.015-7.526
	c3.512-1.004,7.024-2.007,10.538-3.01v12.041C203.09,205.053,200.583,206.057,198.073,206.558z M305.454,186.989v12.042
	c-29.604-4.516-61.216-3.512-90.319,3.512v-12.042v-18.565V49.501h90.319v119.926V186.989z M329.539,197.527
	c-0.501,3.01-4.014,5.017-7.025,4.515c-2.509-0.5-4.515-1.003-7.024-1.505v-12.042c3.011,0.501,6.523,1.003,9.534,2.006
	C328.536,191.004,330.542,194.015,329.539,197.527z M373.697,262.758c-6.523,0-12.043-5.519-12.043-12.043
	c0-6.523,5.52-12.042,12.043-12.042c6.521,0,12.042,5.519,12.042,12.042C385.739,257.739,380.219,262.758,373.697,262.758z"/>
<path fill="none" d="M274.846,135.306c-1.506-1.003-3.01-1.505-4.517-2.007c-1.506-0.502-3.01-1.003-4.516-1.505
	c-1.504-0.502-3.011-0.502-4.517-1.004c-1.002,0-2.509-0.501-3.512-1.002c-1.002-0.502-2.007-1.003-2.509-1.505
	c-0.503-0.502-0.503-1.004-0.503-2.007c0-1.004,0-2.007,0.503-2.509c0.502-0.502,1.004-1.005,1.507-1.505
	c1.504-1.005,3.01-1.005,5.016-1.005c2.511,0,4.015,0.502,5.521,1.505c2.006,1.507,2.509,4.015,2.509,6.524h7.526
	c0-2.509-0.503-5.017-1.505-7.526c-1.004-2.007-2.008-3.512-3.513-4.517c-2.008-1.505-4.516-2.507-7.025-3.01v-6.524h-6.523v6.524
	c-1.003,0-1.506,0.502-2.508,0.502c-2.008,0-3.514,1.002-5.019,2.006c-1.505,1.003-2.509,2.508-3.512,4.015
	c-1.003,1.505-1.505,3.512-1.505,5.519c0,2.007,0,3.513,1.003,5.018c1.004,1.505,2.007,2.509,3.513,3.512
	c1.506,1.004,3.01,1.506,4.516,2.007c1.507,0.502,3.011,1.004,4.517,1.506c2.509,0.501,5.519,1.003,8.028,2.007
	c1.002,0.501,2.007,1.003,2.508,1.505c0,0.502,0.502,1.506,0.502,2.51c0,2.007-1.003,3.512-2.509,4.515
	c-1.003,0.501-2.007,1.004-3.011,1.004c-1.002,0.502-2.007,0.502-3.01,0.502c-2.509,0-5.02-0.502-7.025-2.007
	c-1.004-1.004-1.506-1.506-2.008-2.509c-0.502-1.004-0.502-2.007-0.502-3.512v-1.506h-8.029v1.506c0,2.508,0.502,5.017,1.507,7.024
	c1.003,2.007,2.508,3.513,4.014,5.019c1.505,1.002,3.512,2.007,5.52,2.507c1.005,0,2.007,0.502,3.01,0.502v5.519h6.523v-5.519
	c0.502,0,1.505-0.502,2.51-0.502c2.007-0.5,4.015-1.002,5.519-2.007c1.506-1.003,3.012-2.508,4.015-4.013
	c1.003-1.507,1.505-3.514,1.505-6.022c0-2.006-0.502-4.015-1.003-6.021C277.354,137.313,276.352,136.31,274.846,135.306z"/>
<path fill="#005789" d="M261.799,101.185c-19.067,0-34.623,15.556-34.623,34.623c0,19.067,15.556,34.623,34.623,34.623
	c19.067,0,34.622-15.556,34.622-34.623C296.421,116.741,280.866,101.185,261.799,101.185z M277.354,150.862
	c-1.003,1.505-2.509,3.01-4.015,4.013c-1.504,1.004-3.512,1.507-5.519,2.007c-1.005,0-2.008,0.502-2.51,0.502v5.519h-6.523v-5.519
	c-1.003,0-2.005-0.502-3.01-0.502c-2.008-0.5-4.015-1.505-5.52-2.507c-1.505-1.506-3.011-3.012-4.014-5.019
	c-1.004-2.007-1.505-4.516-1.505-7.024v-1.506h8.029v1.506c0,1.505,0,2.508,0.5,3.512c0.502,1.004,1.004,1.505,2.008,2.509
	c2.006,1.505,4.517,2.007,7.025,2.007c1.003,0,2.008,0,3.01-0.502c1.004,0,2.008-0.502,3.011-1.004
	c1.506-1.003,2.509-2.508,2.509-4.515c0-1.004-0.502-2.007-0.502-2.51c-0.501-0.501-1.506-1.004-2.508-1.505
	c-2.51-1.004-5.52-1.506-8.028-2.007c-1.506-0.502-3.01-1.004-4.517-1.506c-1.506-0.501-3.01-1.003-4.516-2.007
	c-1.506-1.002-2.509-2.007-3.513-3.512c-1.003-1.505-1.003-3.01-1.003-5.018c0-2.007,0.502-4.014,1.505-5.519
	c1.004-1.506,2.007-3.011,3.512-4.015c1.507-1.004,3.011-2.006,5.019-2.006c1.002,0,1.505-0.502,2.508-0.502v-6.524h6.523v6.524
	c2.51,0.502,5.018,1.505,7.025,3.01c1.505,1.004,2.509,2.509,3.513,4.517c1.002,2.509,1.505,5.017,1.505,7.526h-7.526
	c0-2.509-0.503-5.017-2.509-6.524c-1.506-1.002-3.01-1.505-5.521-1.505c-2.006,0-3.512,0-5.016,1.005
	c-0.503,0.5-1.005,1.002-1.507,1.505c-0.503,0.502-0.503,1.505-0.503,2.509c0,1.003,0,1.505,0.503,2.007
	c0.502,0.502,1.507,1.003,2.509,1.505c1.003,0.501,2.51,1.002,3.512,1.002c1.506,0.502,3.013,0.502,4.517,1.004
	c1.506,0.502,3.01,1.003,4.516,1.505c1.507,0.502,3.011,1.004,4.517,2.007c1.506,1.004,2.509,2.007,3.011,3.512
	c0.502,2.007,1.003,4.016,1.003,6.021C278.859,147.349,278.357,149.355,277.354,150.862z"/>
<g>
</g>
<g>
</g>
<g>
</g>
<g>
</g>
<g>
</g>
<g>
</g>
<g>
</g>
<g>
</g>
<g>
</g>
<g>
</g>
<g>
</g>
<g>
</g>
<g>
</g>
<g>
</g>
<g>
</g>
</svg>
